<?xml version="1.0" encoding="UTF-8"?>
<svg id="Layer_2" data-name="Layer 2" xmlns="http://www.w3.org/2000/svg" viewBox="0 0 512.39 482">
  <defs>
    <style>
      .cls-1 {
        fill: #053b51;
      }

      .cls-2 {
        fill: #fff;
      }
    </style>
  </defs>
  <g id="Layer_1-2" data-name="Layer 1-2">
    <g id="Dark_BG" data-name="Dark BG">
      <circle class="cls-1" cx="271.39" cy="241" r="241"/>
      <g id="White_Logo" data-name="White Logo">
        <g>
          <path class="cls-2" d="M327.12,139.87c-12.25,8.39-7.48,24.99,1.44,33.99,9.9,9.98,30.98,15.55,39.71,1.25,12.54-20.56-20.86-49.1-41.13-35.21l-.02-.02ZM335.05,156.49c-3.72,0-6.7-3.01-6.7-6.7s3.01-6.72,6.7-6.72,6.72,3.01,6.72,6.72-3.01,6.7-6.72,6.7Z"/>
          <path class="cls-2" d="M312.8,277.84c27.51-33.74,57.95-65.28,85.21-99.22,1.88-2.35,3.72-4.94.64-7.34h-24.08c-.51,2.27-1.42,4.5-2.69,6.6-1.83,2.98-4.13,5.33-6.94,7.02l12.01.05-50.1,56.02c-39.98,46.31-41.35,40.66-72.37,5.72-2.25-2.54-4.38-5.4-6.65-7.97-12.71-14.38-36.48-41.69-49-54.57l84.79.39c.83-6.5,6.45-12.49,8.58-13.37l-116.48-.15c-3.86,2.15.05,5.89,2.03,8.22,27.78,32.57,55.21,63.47,82.5,96.43,10.86,13.11,17.92,25.75,18.88,43.33.88,16.55-.51,65.31-.27,81.91-.88,3.5-16.11,15.8-34.04,17.9l-28.12,5.5c-4.99,2.74-3.01,9.8,2.64,9.76l135.73.05c6.19.27,8.22-7.41,2.54-10l-28.19-4.74c-24.01-4.91-34.08-15.26-33.74-18.85.59-21.71-.2-53.35,1.81-80.93,1.2-16.41,6.7-31.2,15.33-41.79v.05Z"/>
          <path class="cls-2" d="M296.41,174.63c-12.3,8.29-7.7,24.92,1.15,33.99,9.8,10.05,30.83,15.8,39.68,1.56,12.71-20.44-20.47-49.27-40.83-35.55ZM303.55,192.68c-3.72,0-6.72-3.01-6.72-6.72s3.01-6.7,6.72-6.7,6.7,3.01,6.7,6.7-3.01,6.72-6.7,6.72Z"/>
          <path class="cls-2" d="M264.9,211.48c-12.25,8.39-7.48,24.99,1.44,33.99,9.9,9.98,30.98,15.55,39.71,1.25,12.54-20.56-20.86-49.1-41.13-35.21l-.02-.02ZM272.75,229.84c-3.72,0-6.7-3.01-6.7-6.72s3.01-6.7,6.7-6.7,6.72,3.01,6.72,6.7-3.01,6.72-6.72,6.72Z"/>
          <path class="cls-2" d="M113.37,179.74c16.45-16.57,32.15-37.25,66.59-61.36,22.65-16.91,82.73-55.03,130.42-55.03,12.07,0,23.94,1.12,34.83,5.16,19.01,7.04,31.11,17.02,31.11,31.15,0,2.86-.3,6.36-1.14,10.29-2.3,10.71-8,23.96-8.22,24.5.31.15,2.56,2.1,3.55,3.52.98-.66,8.22-16.63,9.11-18.9,10-25.4,16.04-81.98-66.13-83.57l-.05-.05c-22.91-.44-59.52,6.33-103.88,36.5C165.63,101.84,38.59,240.61,0,302.56"/>
        </g>
      </g>
    </g>
  </g>
</svg>