<?xml version="1.0" encoding="UTF-8"?>
<svg id="Layer_2" data-name="Layer 2" xmlns="http://www.w3.org/2000/svg" viewBox="93 249 402 232">
  <defs>
    <style>
      .cls-1 {
        fill: #053b51;
      }

      .cls-2 {
        fill: #fff;
      }
    </style>
  </defs>
  <g id="Layer_1-2" data-name="Layer 1">
    <g id="Dark_BG" data-name="Dark BG">
      
      <g id="White_Logo" data-name="White Logo">
        <g>
          <path class="cls-2" d="M137.13,457.74c.03-.23.25-.41.46-.41h.41c.13,0,.36.1.43.25l5.89,10.97h.05l5.89-10.97c.08-.15.3-.25.43-.25h.41c.2,0,.43.18.46.41l2.86,17.06c.05.33-.18.56-.48.56h-3c-.23,0-.46-.2-.48-.41l-1.14-7.85h-.05l-4.27,8.22c-.08.15-.3.28-.43.28h-.46c-.15,0-.36-.13-.43-.28l-4.29-8.23h-.05l-1.12,7.85c-.03.2-.23.41-.48.41h-3c-.3,0-.53-.23-.48-.56l2.87-17.06Z"/>
          <path class="cls-2" d="M165.13,474.71l7.95-17.09c.08-.15.25-.28.43-.28h.25c.18,0,.36.13.43.28l7.94,17.09c.15.33-.05.66-.43.66h-2.82c-.46,0-.66-.15-.89-.64l-.91-2.01h-6.91s-.91,2.03-.91,2.03c-.13.3-.41.61-.91.61h-2.79c-.38,0-.58-.33-.43-.66ZM175.57,469.28l-1.93-4.19h-.03l-1.91,4.19h3.86Z"/>
          <path class="cls-2" d="M193.81,458.08c0-.25.2-.48.48-.48h7.59c3.22,0,5.53,2.47,5.53,5.49,0,2.34-1.4,4.22-3.76,5.1l3.48,6.45c.18.33,0,.74-.43.74h-3.38c-.2,0-.36-.13-.41-.23l-3.38-6.73h-1.75v6.47c0,.25-.23.48-.48.48h-3.02c-.28,0-.48-.23-.48-.48v-16.81ZM201.55,465.2c1.04,0,1.93-.84,1.93-2.03,0-1.19-.89-1.93-1.93-1.93h-3.76s0,3.96,0,3.96h3.76Z"/>
          <path class="cls-2" d="M223.03,461.34h-3.63c-.28,0-.48-.23-.48-.48v-2.77c0-.25.2-.48.48-.48h11.27c.28,0,.48.23.48.49v2.77c0,.25-.2.48-.48.48h-3.63s0,13.56,0,13.56c0,.25-.23.48-.48.48h-3.05c-.25,0-.48-.23-.48-.48v-13.56Z"/>
          <path class="cls-2" d="M243.48,458.1c0-.25.23-.48.48-.48h3.05c.25,0,.48.23.48.48v16.81c0,.25-.23.48-.49.48h-3.05c-.25,0-.48-.23-.48-.48v-16.81Z"/>
          <path class="cls-2" d="M261.13,457.83c0-.25.23-.46.48-.46h.38c.25,0,.43.18.63.38l9.75,9.37h.03v-9.01c0-.25.21-.48.49-.48h3.05c.25,0,.48.23.48.48v17.09c0,.3-.23.46-.49.46h-.25c-.25,0-.43-.08-.64-.28l-9.87-9.93h-.03v9.47c0,.25-.21.48-.49.48h-3.02c-.25,0-.48-.23-.48-.48l-.02-17.09Z"/>
          <path class="cls-2" d="M290.08,458.11c0-.25.23-.48.48-.48h3.05c.25,0,.48.23.48.48v16.81c0,.25-.23.48-.49.48h-3.05c-.25,0-.48-.23-.48-.48v-16.81Z"/>
          <path class="cls-2" d="M323.5,458.12c0-.25.2-.48.48-.48h3.02c.25,0,.48.23.48.48v13.56s6.04,0,6.04,0c.28,0,.48.23.48.48v2.77c0,.25-.2.48-.48.48h-9.55c-.28,0-.48-.23-.48-.49v-16.81Z"/>
          <path class="cls-2" d="M354.2,457.4c5.08,0,9.14,4.09,9.14,9.17,0,5.08-4.07,9.12-9.14,9.11s-9.11-4.04-9.11-9.12c0-5.08,4.04-9.17,9.12-9.16ZM354.2,471.62c2.79,0,5.08-2.28,5.08-5.05,0-2.79-2.28-5.1-5.08-5.11-2.77,0-5.05,2.31-5.06,5.1,0,2.77,2.28,5.05,5.05,5.05Z"/>
          <path class="cls-2" d="M375.81,458.14c0-.25.23-.48.48-.48h3.12c.28,0,.48.23.48.48v10.59c0,1.85,1.32,2.89,3.12,2.9,1.83,0,3.17-1.04,3.18-2.89v-10.59c0-.25.21-.48.49-.48h3.12c.25,0,.48.23.48.48v10.79c0,3.86-3.26,6.75-7.27,6.75-3.99,0-7.21-2.9-7.21-6.76v-10.79Z"/>
          <path class="cls-2" d="M403.75,457.87c0-.25.23-.46.48-.46h.38c.25,0,.43.18.63.38l9.75,9.37h.03v-9.01c0-.25.21-.48.49-.48h3.05c.25,0,.48.23.48.48v17.09c0,.3-.23.46-.49.46h-.25c-.25,0-.43-.08-.64-.28l-9.87-9.93h-.03v9.47c0,.25-.21.48-.49.48h-3.02c-.25,0-.48-.23-.48-.48l-.02-17.09Z"/>
          <path class="cls-2" d="M440.8,457.45c2.13,0,4.47.89,6.19,2.39.23.18.25.48.05.69l-2.01,2.13c-.2.18-.48.18-.69.03-.96-.89-2.08-1.22-3.33-1.22-2.77,0-5,2.33-5,5.13,0,2.77,2.26,5.05,5.03,5.05.74,0,1.5-.1,2.26-.41v-1.47s-1.6,0-1.6,0c-.28,0-.48-.2-.48-.46v-2.51c0-.28.2-.48.48-.48h5.1c.25,0,.46.23.46.48l.02,6.83c0,.23-.1.33-.2.41,0,0-2.62,1.65-6.3,1.65-5.05,0-9.11-4.01-9.11-9.09,0-5.08,4.07-9.14,9.12-9.14Z"/>
          <path class="cls-2" d="M460.35,458.17c0-.25.2-.48.48-.48h10.51c.28,0,.48.23.48.49v2.77c0,.25-.2.48-.48.48h-7.03s0,3.15,0,3.15h5.79c.25,0,.48.23.48.48v2.77c0,.28-.23.48-.48.48h-5.79s0,3.43,0,3.43h7.03c.28,0,.48.23.48.48v2.77c0,.25-.2.48-.48.48h-10.51c-.28,0-.48-.23-.48-.49v-16.81Z"/>
        </g>
        <g>
          <path class="cls-2" d="M307.24,353.55c-4.23,0-4.88-2.42-4.9-3.87,0-.77.23-1.6.69-2.47.81-1.82,1.99-3.26,3.58-4.38,1.61-1.13,3.33-1.67,5.42-1.69h.08c4.08,0,4.71,2.43,4.72,3.87.02,2.08-1.01,4.02-3.04,5.77-1.96,1.68-4.12,2.61-6.4,2.76h-.16s0,0,0,0Z"/>
          <path class="cls-2" d="M393.73,330.42c-1.99-4.03-5.7-5.18-6.84-5.68-2.21-.8-4.87-1.21-7.9-1.21h-.29c-1.69.01-3.34.15-4.92.4-1.57.25-2.96.57-4.09.92-7.69,2.05-15.17,5.75-22.25,10.99-7.01,5.2-13.57,10.97-19.48,17.13-6.79,6.74-13.26,13.75-19.21,20.81-5.97,7.09-10.66,13.34-13.92,18.58-1.11,1.79-2.05,3.41-2.85,4.89-1,.99-2.76,2.22-4.23,3.67-1.64,1.62-3.51,3.3-5.55,4.97-2.02,1.66-4.05,3.09-6.02,4.23-1.85,1.08-3.6,1.64-5.19,1.65-1.99,0-2.4-.78-2.41-1.95,0-1.1.5-2.64,1.5-4.6,1.06-2.06,2.36-4.22,3.88-6.41,1.57-2.26,2.95-4.18,4.2-5.87,1.22-1.64,2.05-2.74,2.4-3.18,4.22-5.49,8.56-10.73,12.89-15.58,4.36-4.88,7.84-8.68,10.34-11.31l2.37-2.49-3.36.77c-3.41.78-6.33,1.67-8.69,2.66-2.42,1.01-4.79,2.59-7.05,4.67-2.29,2.01-5.04,4.64-8.18,7.8-3.13,3.16-6.23,6.57-9.21,10.12-3.02,3.6-5.58,7.24-7.6,10.84-2.08,3.71-3.13,7.22-3.1,10.45.02,2.57.8,4.74,2.31,6.45,1.52,1.72,4,2.59,7.35,2.59h.17c4.51-.04,8.66-1.44,12.34-4.18,2.32-1.72,4.85-3.92,7.55-6.54-.12.77-.2,1.52-.2,2.2.05,5.84,3.67,8.93,10.46,8.93h.19c3.87-.03,8.06-1.52,12.44-4.43,4.28-2.84,9.02-7.01,14.1-12.42.67-.78,1.01-1.83,1-3.13-.01-1.54-1-2.09-1.84-2.09h-.46s-.31.34-.31.34c-1.37,1.49-3.41,3.53-6.08,6.05-2.66,2.51-5.48,4.83-8.39,6.9-2.77,1.96-5.29,2.97-7.49,2.98-1.15,0-2.33-.36-2.35-3.07,0-.82.19-1.91.59-3.24.4-1.33,1.02-2.61,1.86-3.85,1.6-2.74,3.77-6.11,6.44-10.02,2.68-3.93,5.55-7.89,8.53-11.79,2.99-3.91,5.76-7.23,8.22-9.85,6.45-6.88,12.76-13.53,18.76-19.78,5.89-6.13,11.9-11.22,17.86-15.13,5.86-3.84,12.05-5.81,18.4-5.87h.3c2.29,0,4.27.23,5.88.68,1.65.47,4.14,1.19,5.44,2.13l2.49,1.82-.84-2.97Z"/>
          <path class="cls-2" d="M354.93,416.75c-2.26,0-4.47-.2-6.59-.6-2.28-.43-4.31-1.21-6.05-2.32-1.42-.92-2.62-2.2-3.58-3.8-.98-1.62-1.48-3.72-1.5-6.22-.02-3.01.79-5.4,2.42-7.08,1.49-1.54,3.12-2.4,4.85-2.55,1.21-1.44,2.81-3.39,4.87-5.94,2.13-2.64,4.53-5.59,7.34-9.02,2.71-3.3,5.53-6.67,8.39-9.99,2.86-3.33,5.6-6.38,8.15-9.06,1.64-1.52,3.36-3.13,5.14-4.83,1.84-1.76,3.96-3.3,6.28-4.57,2.4-1.31,5-1.99,7.71-2.01h.12c2.19,0,3.83.51,4.89,1.52,1.09,1.04,1.64,2.3,1.65,3.74,0,.84-.22,1.62-.68,2.32l-.37.56-.66-.1c-.27-.04-.57-.06-.9-.06-1.06,0-2.44.22-4.08.64-2.23.58-4.72,1.61-7.41,3.06-2.82,1.61-5.74,3.64-8.68,6.03-.1,1.22-.21,2.97-.35,5.32-.15,2.59-.33,5.5-.54,8.73-.21,3.26-.57,6.55-1.06,9.77-.63,4.09-1.27,6.49-1.97,8.66-.59,1.77-1.55,3.74-2.84,5.87-1.32,2.16-3.11,4.18-5.32,6.01-.41.34-4.84.66-5.29.96,1-.25,5.93-.56,6.77-.92,2.68-1.14,4.96-2.47,6.78-3.95,1.9-1.54,3.43-2.8,4.58-3.76.85-.79,2.08-1.98,3.74-3.62,1.65-1.64,2.77-2.77,3.42-3.48l.31-.33h.45c.8,0,1.74.51,1.75,1.97,0,1.21-.3,2.19-.93,2.91-4.9,4.85-9.03,8.45-12.31,10.73-2.98,2.1-6.08,3.53-9.21,4.27-3.08.73-6.09,1.11-8.94,1.13h-.33s0,0,0,0ZM371.37,370.91c-2.31,2.17-4.62,4.5-6.88,6.93-3.14,3.38-6.07,6.64-8.69,9.71-2.64,3.07-4.81,5.62-6.54,7.63-1.43,1.72-2.53,3.57-3.29,5.47-.74,1.88-1.11,3.67-1.1,5.32.02,1.77.43,3.22,1.23,4.29.74.99,1.68,1.45,2.97,1.45,1.74-.01,3.37-.67,4.85-1.93,1.61-1.39,3.09-3.04,4.4-4.92,1.34-1.91,2.41-3.7,3.18-5.34,1.24-2.52,2.55-5.75,3.89-9.6,1.34-3.84,2.65-7.87,3.9-11.96.78-2.55,1.48-4.92,2.08-7.06Z"/>
          <path class="cls-2" d="M367.55,352.28c-.16-1.3-.58-3.5-4.27-3.5h-.07c-1.89.02-3.44.5-4.9,1.53-1.44,1.01-2.51,2.32-3.24,3.97-.42.78-.63,1.53-.63,2.23.01,1.31.6,3.5,4.43,3.5h.14s.05,0,.08-.01c-.16.24-.31.49-.43.76-.64,1.53-5.22,6.06-7.31,6.96-.87.41-1.53.89-1.1,1.39.24.28,1.69-.03,1.88-.15,3.01-1.28,8.18-4.93,10.58-7.71,2.65-3.06,5.15-6.45,4.84-8.97Z"/>
          <path class="cls-2" d="M462.39,295.08c-5.01,3.43-3.06,10.22.59,13.9,4.05,4.08,12.67,6.36,16.24.51,5.13-8.41-8.53-20.08-16.82-14.4ZM465.63,301.88c-1.52,0-2.74-1.23-2.74-2.74s1.23-2.75,2.74-2.75,2.75,1.23,2.75,2.75-1.23,2.74-2.75,2.74Z"/>
          <path class="cls-2" d="M456.53,351.51c11.25-13.8,23.7-26.7,34.85-40.58.77-.96,1.52-2.02.26-3h-9.85c-.21.93-.58,1.84-1.1,2.7-.75,1.22-1.69,2.18-2.84,2.87l4.91.02-20.49,22.91c-16.35,18.94-16.91,16.63-29.6,2.34-.92-1.04-1.79-2.21-2.72-3.26-5.2-5.88-14.92-17.05-20.04-22.32l34.68.16c.34-2.66,2.64-5.11,3.51-5.47l-47.64-.06c-1.58.88.02,2.41.83,3.36,11.36,13.32,22.58,25.96,33.74,39.44,4.44,5.36,7.33,10.53,7.72,17.72.36,6.77-.21,26.71-.11,33.5-.36,1.43-6.59,6.46-13.92,7.32l-11.5,2.25c-2.04,1.12-1.23,4.01,1.08,3.99l55.51.02c2.53.11,3.36-3.03,1.04-4.09l-11.53-1.94c-9.82-2.01-13.94-6.24-13.8-7.71.24-8.88-.08-21.82.74-33.1.49-6.71,2.74-12.76,6.27-17.09Z"/>
          <path class="cls-2" d="M449.83,309.3c-5.03,3.39-3.15,10.19.47,13.9,4.01,4.11,12.61,6.46,16.23.64,5.2-8.36-8.37-20.15-16.7-14.54ZM452.75,316.68c-1.52,0-2.75-1.23-2.75-2.75s1.23-2.74,2.75-2.74,2.74,1.23,2.74,2.74-1.23,2.75-2.74,2.75Z"/>
          <path class="cls-2" d="M436.94,324.37c-5.01,3.43-3.06,10.22.59,13.9,4.05,4.08,12.67,6.36,16.24.51,5.13-8.41-8.53-20.08-16.82-14.4ZM440.15,331.88c-1.52,0-2.74-1.23-2.74-2.75s1.23-2.74,2.74-2.74,2.75,1.23,2.75,2.74-1.23,2.75-2.75,2.75Z"/>
          <path class="cls-2" d="M440.18,252.38c-14.67-.18-38.11,2.59-66.51,14.93-28.13,12.22-54.92,31.26-79.63,56.6-3.45,3.53-6.88,6.94-10.21,10.24-5.01,4.97-9.74,9.66-14.14,14.41-8.98,9.56-18.26,18.92-27.59,27.82-7.28,6.94-14.05,13.12-20.21,18.45,3.43-4.04,6.92-8.42,10.41-13.09,4.98-6.66,9.75-13.42,14.19-20.07,4.56-6.84,8.46-12.84,11.93-18.34,3.46-5.49,6.17-9.85,8.03-12.95.54-.86,4.14-6.65,4.14-6.65,2.09-3.35,4.12-7.11,6.05-11.16,1.95-4.1,2.93-7.6,2.93-10.41,0-3.62-1.99-5.53-5.76-5.53-3.45,0-7.56,1.93-12.23,5.72-4.6,3.74-10.32,9.43-17,16.9-5.26,6.05-11.3,12.83-17.94,20.16-6.73,7.44-13.86,15.15-21.2,22.91-4.97,5.26-9.94,10.35-14.87,15.22,6.57-8.28,12.36-17.11,17.29-26.33,6.43-12.06,11.05-24.59,13.73-37.26.33-1.68.59-3.31.76-4.86.17-1.56.25-3.12.25-4.64,0-8.19-2.5-14.86-7.42-19.83-4.93-4.96-12.31-7.48-21.93-7.48-7.89,0-16.14,1.83-24.54,5.43-8.37,3.59-16.63,8.47-24.57,14.5-7.94,6.03-15.26,12.87-21.78,20.35-6.53,7.49-12.08,15.35-16.5,23.35-4.44,8.03-7.37,15.83-8.72,23.22-.16,1.46-.37,2.96-.62,4.44-.25,1.48-.38,2.85-.38,4.09,0,7.29,2.04,12.85,6.06,16.52,4,3.66,9.05,5.51,15.01,5.51,6.74,0,13.9-1.83,21.3-5.44,7.36-3.59,14.58-8.47,21.44-14.51,6.85-6.03,13.16-12.95,18.77-20.59,5.6-7.64,10.1-15.65,13.36-23.83,3.27-8.19,4.93-16.24,4.93-23.9,0-1.3-.36-2.55-1.08-3.7-.79-1.25-1.48-1.83-2.17-1.83-.83,0-1.24.78-1.24,2.32-.17,8.91-2.01,17.68-5.48,26.06-3.48,8.4-8.1,16.3-13.74,23.49-5.64,7.2-11.91,13.61-18.62,19.06-6.71,5.45-13.43,9.74-19.97,12.77-6.51,3.01-12.48,4.54-17.74,4.54-3.55,0-6.44-.93-8.59-2.75-2.13-1.8-3.21-5.26-3.21-10.28,0-1.21.08-2.62.25-4.19.16-1.58.41-3.3.75-5.12,1.32-7.24,4.01-14.91,7.99-22.78,3.98-7.88,8.99-15.6,14.88-22.95,5.89-7.35,12.41-14.07,19.38-19.98,6.96-5.9,14.35-10.69,21.97-14.25,7.6-3.54,15.13-5.42,22.38-5.57,5.83,0,10.18,1.75,12.92,5.2,2.76,3.49,4.16,8.28,4.16,14.24,0,1.63-.08,3.39-.25,5.22-.17,1.81-.5,3.72-1,5.67-1.99,9.53-5.48,19.67-10.38,30.14-4.91,10.48-10.85,20.83-17.65,30.75-6.82,9.94-14.27,19.25-22.16,27.67-7.89,8.41-15.92,15.44-23.94,20.94-2.17,1.97-2.17,2.16-2.17,2.43,0,.17.07.72.99.72,1.42,0,4.12-.99,8.25-3.03,4.02-1.99,7.93-4.4,11.63-7.16,1.33-1.07,2.68-2.11,4-3.08,1.34-.99,2.61-2.03,3.77-3.1,6.68-4.42,13.82-10.1,21.23-16.87,7.4-6.76,15.01-14.13,22.61-21.91,7.6-7.78,14.95-15.57,21.85-23.16l4.54-4.99c5.18-5.7,9.99-10.99,14.41-15.87,3.51-3.97,7.11-8.02,10.79-12.14,3.64-4.09,6.58-7.08,8.69-8.86,1.75-1.16,3.1-1.75,4-1.75.29,0,.51.05.51.65,0,1.12-.48,2.42-1.44,3.88-5.66,10.17-12.23,20.64-19.55,31.12-7.34,10.51-15.02,20.91-22.82,30.91-5.65,7.2-11.18,14.29-16.44,21.09-5.44,7.03-10.58,13.67-15.44,19.95-.7.96-1.25,1.8-1.66,2.57-.46.83-.69,1.68-.69,2.53,0,.78.32,2.1,2.5,2.1h.25c.88,0,1.87-.2,2.94-.6,1.01-.39,2.03-.89,3.05-1.5,5.2-1.85,11.82-5.88,19.67-11.98,7.85-6.1,16.47-13.62,25.64-22.38,2.71-2.58,4.63-4.38,6.21-5.86,3.82-3.57,5.74-5.37,12.13-12.06,5.39-5.72,25.11-24.01,38.15-36.11,4.26-3.96,7.95-7.37,10.07-9.37,4.45-4.19,21.75-17.38,44.13-29.32,20.53-10.95,51.41-24.01,81.95-24.01,7.73,0,15.33.46,22.3,2.11,12.17,2.88,19.92,6.96,19.92,12.74,0,1.17-.19,2.6-.73,4.21-1.47,4.38-5.12,9.8-5.26,10.02.2.06,1.64.86,2.27,1.44.63-.27,5.26-6.8,5.83-7.73,6.4-10.39,10.27-33.53-42.34-34.18Z"/>
        </g>
      </g>
    </g>
  </g>
</svg>